<?xml version="1.0" standalone="no"?>
<!DOCTYPE svg PUBLIC "-//W3C//DTD SVG 20010904//EN"
 "http://www.w3.org/TR/2001/REC-SVG-20010904/DTD/svg10.dtd">
<svg version="1.0" xmlns="http://www.w3.org/2000/svg"
 width="900.000000pt" height="1470.000000pt" viewBox="0 0 900.000000 1470.000000"
 preserveAspectRatio="xMidYMid meet">
<metadata>
Created by potrace 1.10, written by Peter Selinger 2001-2011
</metadata>
<g transform="translate(0.000000,1470.000000) scale(0.100000,-0.100000)"
fill="#000000" stroke="none">
<path d="M4430 13890 c-119 -23 -171 -40 -238 -77 -58 -32 -122 -111 -122
-150 0 -26 -21 -48 -109 -116 -47 -36 -77 -71 -95 -112 -17 -36 -36 -127 -36
-169 0 -70 32 -194 65 -255 l28 -50 -32 -36 c-17 -20 -31 -38 -31 -40 0 -13
40 -168 54 -208 31 -91 43 -107 81 -107 30 0 36 -4 41 -27 28 -122 63 -205
103 -242 24 -23 26 -31 30 -137 3 -107 2 -112 -20 -128 -13 -9 -31 -16 -41
-16 -33 0 -51 -47 -56 -139 -4 -91 -24 -131 -64 -131 -9 0 -35 -6 -55 -13 -93
-33 -110 -39 -138 -47 -16 -5 -75 -25 -130 -45 -55 -20 -113 -40 -130 -44 -16
-5 -41 -13 -55 -18 -47 -19 -148 -48 -310 -88 -30 -8 -91 -19 -135 -26 -95
-14 -121 -28 -134 -71 -5 -18 -19 -58 -31 -88 -12 -30 -25 -66 -30 -80 -5 -14
-18 -50 -30 -80 -12 -30 -25 -66 -30 -80 -5 -14 -18 -50 -30 -80 -42 -111 -52
-136 -60 -165 -4 -16 -18 -55 -30 -85 -41 -105 -51 -135 -60 -165 -5 -16 -25
-75 -45 -130 -20 -55 -40 -113 -45 -130 -4 -16 -18 -55 -30 -85 -45 -117 -52
-136 -57 -160 -3 -14 -12 -34 -19 -45 -8 -11 -14 -27 -14 -36 0 -10 -6 -30
-14 -46 -30 -60 -48 -113 -43 -126 3 -9 30 -16 79 -21 40 -4 105 -12 143 -19
84 -16 85 -18 61 -152 -8 -49 -22 -136 -31 -192 -8 -57 -22 -147 -31 -200 -20
-125 -16 -292 9 -346 l18 -38 -33 -31 c-57 -53 -68 -77 -68 -150 0 -86 23
-132 106 -215 l63 -62 2 -203 c2 -184 4 -204 21 -218 15 -13 20 -40 30 -170 7
-94 8 -201 4 -273 -8 -114 -9 -119 -42 -158 -42 -50 -42 -67 -4 -104 28 -26
30 -34 29 -94 0 -36 -5 -93 -9 -126 -16 -108 -34 -289 -34 -335 0 -41 10 -71
59 -170 6 -14 21 -56 31 -94 17 -62 25 -73 82 -125 35 -31 97 -89 137 -129 82
-83 99 -87 129 -31 18 33 18 41 7 75 -7 22 -43 71 -82 114 -76 83 -99 134
-119 261 -11 68 -10 79 5 103 19 29 50 34 59 10 3 -9 6 -57 6 -108 0 -99 15
-137 59 -149 44 -11 46 -1 48 250 3 306 -2 332 -94 454 -40 53 -43 62 -49 140
-3 46 -8 87 -10 91 -6 10 31 162 61 248 7 19 20 60 29 90 39 124 47 139 75
142 30 3 49 37 77 133 9 33 21 71 27 85 5 14 13 41 17 60 10 44 28 96 46 133
20 42 18 82 -7 98 -20 14 -20 15 -2 61 14 40 15 55 6 90 -13 47 -10 58 16 58
33 0 78 57 99 127 54 182 52 165 52 454 0 257 8 357 37 458 11 39 28 -26 53
-204 11 -77 30 -175 46 -231 8 -28 14 -62 14 -76 0 -38 38 -116 64 -134 32
-20 38 -49 17 -76 -87 -114 -270 -477 -287 -568 -3 -14 -12 -49 -20 -77 -42
-151 -53 -199 -88 -388 -63 -342 -90 -853 -57 -1100 27 -201 85 -568 113 -720
6 -33 15 -89 18 -125 7 -69 22 -166 45 -290 8 -41 21 -122 30 -180 9 -58 23
-134 31 -170 8 -36 14 -76 14 -90 0 -14 6 -54 14 -90 19 -81 46 -265 46 -304
0 -41 29 -154 50 -196 10 -19 28 -44 40 -55 40 -36 41 -56 4 -101 -21 -25 -34
-52 -34 -69 0 -29 34 -110 51 -121 13 -7 11 -38 -3 -52 -15 -15 -35 -70 -55
-147 -11 -45 -14 -89 -9 -175 8 -157 18 -243 57 -490 7 -41 15 -102 19 -135 4
-33 12 -87 18 -120 11 -57 30 -190 38 -265 8 -66 36 -225 50 -282 8 -32 14
-70 14 -85 1 -16 7 -39 15 -53 8 -14 14 -33 15 -42 0 -23 61 -153 94 -201 37
-54 35 -64 -33 -156 -50 -67 -64 -148 -37 -212 8 -19 42 -61 77 -93 l62 -59
-7 -76 c-3 -42 -13 -110 -20 -151 -8 -41 -22 -120 -31 -175 -22 -136 -45 -216
-88 -300 -5 -11 -16 -42 -23 -69 -11 -40 -11 -55 0 -80 18 -44 34 -54 106 -65
165 -27 457 6 497 56 9 11 10 52 6 147 -4 90 -1 170 10 256 17 136 12 221 -18
300 -9 25 -19 56 -22 70 -4 14 -12 34 -18 45 -7 11 -15 34 -18 52 -5 27 -2 34
28 55 44 29 53 70 31 138 -16 49 -16 51 5 73 11 12 30 40 42 62 19 36 21 55
20 195 -1 143 -3 161 -28 225 -15 39 -29 79 -32 90 -3 11 -11 34 -18 50 -52
117 -50 96 -32 265 10 85 17 182 17 215 0 33 7 121 15 195 19 174 19 359 0
484 -8 55 -15 121 -15 147 0 61 -25 137 -56 170 -13 14 -24 34 -24 45 0 11 24
48 53 83 68 80 82 138 67 287 -12 130 -12 1002 1 1309 5 132 14 362 18 510 9
260 18 347 47 428 8 20 14 46 14 57 0 10 5 22 12 26 15 10 48 -32 48 -63 0
-13 5 -34 12 -46 20 -38 37 -259 48 -622 5 -192 14 -465 20 -605 13 -343 13
-727 -1 -940 -15 -230 -9 -264 66 -346 30 -32 54 -63 55 -68 0 -6 -16 -42 -35
-82 -32 -64 -37 -87 -51 -225 -26 -255 -27 -288 -10 -445 9 -83 16 -178 16
-212 0 -33 7 -112 15 -174 22 -173 23 -287 3 -329 -23 -47 -59 -144 -92 -244
-12 -36 -16 -87 -16 -186 0 -145 14 -203 63 -256 17 -19 18 -26 8 -51 -7 -16
-13 -50 -14 -76 -2 -41 2 -49 31 -74 35 -30 40 -58 18 -100 -15 -30 -35 -75
-60 -137 -15 -35 -16 -80 -11 -369 3 -181 8 -332 11 -335 12 -13 95 -33 184
-46 179 -26 362 -14 408 28 17 16 22 31 22 70 0 27 -6 61 -14 75 -7 15 -22 45
-31 67 -10 22 -22 48 -26 57 -12 23 -43 189 -64 333 -9 66 -21 142 -26 168
-17 90 -14 99 60 182 55 61 70 86 75 118 10 66 -7 129 -53 197 -30 46 -41 72
-41 101 0 21 4 40 9 44 11 6 71 129 94 190 33 92 61 214 77 335 4 36 13 92 18
125 18 96 43 257 86 553 8 53 20 129 26 167 32 200 34 477 4 520 -9 12 -14 46
-14 90 0 47 -5 78 -15 91 -23 31 -19 79 9 97 34 23 63 74 81 144 14 56 14 67
0 132 -24 104 -16 203 31 367 8 28 14 62 14 75 0 13 6 53 15 89 28 127 63 311
75 400 5 36 14 78 19 94 6 15 11 41 11 58 0 17 7 67 15 112 32 176 45 256 45
276 0 12 6 52 14 89 8 36 22 111 30 166 8 55 20 132 26 170 41 265 55 671 32
905 -27 261 -86 630 -117 731 -8 26 -15 55 -15 65 0 34 -66 221 -100 284 -5 8
-32 62 -61 120 -29 58 -65 125 -79 150 -50 87 -55 105 -32 138 34 47 76 171
136 408 9 33 16 85 17 115 0 30 4 77 8 104 l7 50 19 -35 c19 -32 20 -62 26
-390 6 -370 5 -360 55 -503 15 -44 48 -81 102 -117 22 -14 23 -17 11 -61 -11
-40 -10 -53 5 -93 l18 -46 -27 -22 c-24 -21 -25 -26 -16 -63 5 -22 14 -53 19
-70 6 -16 17 -61 26 -100 8 -38 23 -107 33 -152 l18 -83 37 0 c29 0 41 -6 57
-29 12 -16 21 -38 21 -48 0 -11 6 -39 14 -64 7 -24 20 -69 29 -99 8 -30 23
-82 33 -115 13 -46 17 -91 16 -188 l-2 -128 -39 -52 c-88 -118 -98 -160 -106
-465 -7 -254 -5 -262 47 -262 45 0 68 59 68 181 0 53 3 99 7 102 3 4 17 -3 30
-15 21 -20 23 -30 23 -120 0 -109 -7 -131 -68 -208 -20 -25 -39 -47 -42 -50
-3 -3 -27 -33 -53 -67 -54 -70 -59 -103 -23 -147 17 -20 28 -26 39 -20 8 5 76
68 150 139 99 96 140 143 155 179 12 27 22 54 22 61 0 13 12 38 49 110 20 37
18 168 -4 293 -8 48 -15 145 -15 216 0 119 2 132 22 153 28 30 28 80 1 102
-11 9 -24 24 -29 33 -5 9 -6 90 -3 180 4 90 7 207 8 261 1 97 2 99 31 125 l30
26 0 199 0 199 73 78 c62 66 75 86 87 134 20 85 3 151 -56 209 -42 41 -45 47
-34 68 30 55 40 132 30 229 -14 124 -38 303 -56 410 -7 47 -15 121 -16 164
l-3 79 70 14 c39 8 99 17 135 21 64 7 65 7 64 37 -1 17 -11 55 -23 85 -13 30
-26 69 -31 85 -5 17 -18 55 -30 85 -12 30 -25 66 -30 80 -5 14 -18 50 -30 80
-12 30 -25 69 -30 86 -4 18 -11 37 -15 44 -4 7 -11 26 -16 44 -4 17 -24 76
-44 131 -20 55 -40 114 -45 130 -4 17 -18 55 -30 85 -12 30 -25 69 -30 85 -5
17 -18 55 -30 85 -41 106 -51 135 -60 165 -4 17 -18 55 -30 85 -38 100 -51
135 -57 155 -15 55 -46 105 -65 105 -32 0 -230 46 -323 74 -22 7 -67 21 -100
31 -33 9 -76 23 -95 30 -19 7 -82 27 -140 45 -58 18 -121 38 -140 45 -19 7
-87 30 -150 50 -63 20 -124 43 -134 51 -17 12 -20 29 -23 111 -3 85 -6 100
-24 116 -12 9 -27 17 -34 17 -7 0 -24 9 -39 21 -25 20 -26 24 -26 119 l0 98
45 54 c25 30 45 62 45 70 0 7 4 18 10 24 5 5 20 46 32 89 21 73 25 80 50 83
30 4 58 35 58 64 0 9 6 32 14 50 50 120 59 203 26 233 -25 23 -25 38 -1 89 37
78 51 147 51 253 0 102 -30 276 -51 298 -5 5 -9 15 -9 23 0 17 -79 138 -114
174 -57 60 -145 100 -281 128 -108 23 -142 23 -265 0z"/>
</g>
</svg>
