<?xml version="1.0" standalone="no"?>
<!DOCTYPE svg PUBLIC "-//W3C//DTD SVG 20010904//EN"
 "http://www.w3.org/TR/2001/REC-SVG-20010904/DTD/svg10.dtd">
<svg version="1.0" xmlns="http://www.w3.org/2000/svg"
 width="900.000000pt" height="1470.000000pt" viewBox="0 0 900.000000 1470.000000"
 preserveAspectRatio="xMidYMid meet">
<metadata>
Created by potrace 1.10, written by Peter Selinger 2001-2011
</metadata>
<g transform="translate(0.000000,1470.000000) scale(0.100000,-0.100000)"
fill="#000000" stroke="none">
<path d="M4314 13885 c-4 -9 1 -24 10 -34 20 -22 12 -31 -31 -31 -45 0 -190
-50 -249 -85 -28 -17 -76 -80 -95 -126 -12 -27 -64 -64 -110 -78 -79 -23 -92
-33 -104 -79 -8 -34 -13 -40 -22 -31 -18 18 -29 1 -15 -22 7 -11 10 -24 7 -30
-6 -8 26 -55 56 -84 113 -108 119 -116 119 -158 0 -24 9 -56 20 -75 15 -23 20
-50 20 -97 0 -62 -1 -64 -27 -67 -18 -2 -29 -10 -32 -23 -5 -28 28 -199 51
-265 23 -66 34 -79 74 -96 25 -11 34 -22 43 -58 6 -25 11 -61 11 -81 0 -38 27
-99 67 -153 23 -30 25 -40 19 -90 -6 -48 -12 -62 -41 -87 -33 -29 -83 -98
-115 -159 -23 -43 -94 -87 -230 -141 -25 -10 -60 -24 -77 -31 -18 -8 -48 -20
-65 -28 -18 -7 -51 -20 -73 -29 -58 -22 -195 -77 -230 -92 -16 -7 -50 -20 -75
-30 -25 -9 -58 -23 -75 -30 -29 -12 -65 -26 -157 -61 -24 -9 -54 -22 -68 -29
-14 -7 -37 -15 -51 -19 -28 -6 -59 -56 -59 -93 0 -11 -6 -39 -14 -64 -7 -24
-22 -73 -31 -109 -10 -36 -23 -85 -30 -110 -13 -47 -37 -136 -62 -230 -8 -30
-22 -80 -30 -110 -32 -114 -42 -147 -57 -202 -9 -32 -23 -82 -31 -110 -36
-127 -44 -157 -59 -218 -21 -80 -41 -153 -60 -223 -33 -115 -34 -112 26 -129
52 -15 114 -32 173 -47 36 -9 36 -27 -2 -140 -14 -42 -29 -92 -34 -111 -4 -19
-17 -66 -28 -105 -26 -89 -26 -103 1 -182 l23 -66 -45 -39 c-45 -40 -45 -41
-41 -97 9 -135 9 -132 -44 -201 -50 -65 -50 -65 -48 -136 0 -39 8 -97 16 -130
15 -58 29 -121 62 -274 8 -41 15 -90 15 -108 0 -19 6 -61 14 -95 23 -96 46
-232 46 -264 0 -16 7 -51 16 -76 9 -26 14 -53 11 -60 -2 -6 -28 -21 -56 -32
-48 -18 -52 -22 -46 -45 12 -48 24 -105 36 -175 7 -38 20 -106 29 -150 l16
-80 40 0 39 0 3 -153 c2 -106 -2 -178 -13 -234 -22 -116 -20 -150 15 -215 17
-31 30 -62 30 -69 0 -7 7 -30 16 -51 36 -84 47 -109 54 -123 4 -8 27 -21 51
-29 62 -20 135 -49 196 -78 62 -31 88 -26 79 15 -13 53 -12 56 19 62 44 8 44
39 -1 69 l-36 25 23 17 23 17 -42 21 c-23 11 -56 21 -74 21 -23 1 -38 8 -50
25 -22 30 -48 126 -48 178 0 41 26 97 46 97 16 0 33 -51 40 -119 8 -84 12 -99
36 -121 28 -25 70 -26 93 0 15 17 16 26 7 62 -20 78 -23 111 -30 303 -7 182
-9 192 -33 230 -15 22 -36 49 -48 59 -20 18 -21 27 -21 252 l0 234 25 6 c40
10 47 35 40 143 -8 105 -9 99 60 231 13 25 24 53 24 62 1 10 7 32 15 50 8 18
22 62 31 98 9 36 22 86 30 111 19 59 19 127 0 159 -28 48 -14 92 67 211 21 31
38 64 38 74 0 10 -13 40 -30 67 -16 26 -30 52 -30 56 0 4 -14 25 -30 46 -41
54 -39 83 10 128 69 65 70 75 68 389 -2 206 0 281 9 290 9 9 14 7 21 -12 14
-37 42 -161 42 -187 0 -13 7 -51 14 -85 36 -150 47 -218 49 -302 2 -75 -1 -95
-18 -120 -11 -16 -22 -32 -25 -35 -46 -44 -46 -47 4 -100 26 -27 56 -71 67
-96 18 -42 18 -49 5 -70 -9 -12 -34 -33 -56 -45 l-40 -23 0 -257 0 -258 -43
-83 c-55 -107 -74 -184 -59 -237 17 -54 15 -220 -3 -299 -9 -37 -22 -96 -30
-132 -8 -36 -20 -119 -26 -184 -12 -123 -11 -139 26 -551 26 -287 36 -427 45
-645 5 -118 14 -253 20 -300 5 -47 10 -123 10 -170 0 -86 15 -281 26 -333 6
-27 100 -163 154 -222 31 -34 46 -89 59 -216 6 -59 15 -99 31 -126 l22 -40
-35 -52 c-20 -28 -38 -64 -42 -79 -7 -36 19 -119 50 -152 12 -14 30 -37 39
-52 17 -25 16 -29 -10 -85 -15 -32 -36 -69 -46 -83 -17 -22 -19 -37 -13 -155
3 -71 12 -202 20 -290 8 -88 21 -268 30 -400 8 -132 20 -307 26 -390 6 -82 15
-211 19 -285 7 -127 13 -157 46 -238 8 -18 14 -37 14 -42 0 -6 13 -38 29 -72
29 -63 29 -65 34 -302 4 -183 8 -241 19 -248 7 -5 38 -7 69 -4 68 6 85 -4 94
-59 5 -34 2 -44 -14 -60 -12 -10 -21 -27 -21 -38 0 -20 -15 -77 -51 -196 -12
-38 -46 -103 -86 -165 -111 -167 -133 -208 -133 -249 0 -18 -7 -59 -15 -92
-10 -35 -12 -62 -7 -67 6 -6 138 -8 313 -5 330 4 379 11 379 51 0 12 13 35 29
50 34 33 47 101 56 301 8 189 -6 257 -77 369 -41 65 -48 108 -23 155 14 28 16
29 79 24 55 -5 67 -3 72 11 3 9 1 105 -5 214 -7 108 -16 319 -21 467 -5 149
-14 356 -19 460 -29 522 -41 755 -46 909 -6 180 -14 214 -59 255 -33 31 -33
61 2 119 l27 47 0 450 c1 407 2 456 19 510 23 76 44 133 62 167 22 41 17 97
-15 163 -59 122 -63 158 -28 255 22 59 25 93 36 360 6 162 14 324 17 360 6 73
35 172 49 169 15 -3 75 -352 75 -432 0 -21 7 -82 15 -135 25 -167 45 -421 45
-578 0 -151 -2 -160 -46 -297 -16 -48 -15 -88 4 -142 6 -16 18 -59 27 -95 10
-36 24 -77 31 -92 11 -19 15 -62 16 -140 l0 -113 44 -66 c24 -36 44 -73 44
-83 0 -10 -12 -37 -27 -60 -16 -22 -37 -58 -47 -78 l-20 -36 26 -39 c14 -21
40 -53 57 -72 45 -50 43 -56 -39 -166 l-45 -60 -8 -215 c-8 -240 -1 -717 13
-825 4 -38 14 -107 20 -153 13 -91 12 -101 -19 -182 -12 -30 -31 -84 -42 -120
-12 -36 -27 -81 -34 -100 -29 -76 -58 -598 -35 -625 10 -12 25 -14 71 -9 51 6
58 4 68 -14 24 -45 14 -86 -56 -217 -50 -92 -58 -127 -58 -255 0 -69 7 -175
15 -237 13 -108 15 -112 39 -115 21 -2 27 -10 32 -41 3 -20 8 -40 12 -43 24
-24 305 -42 568 -36 l131 3 -6 32 c-4 18 -11 57 -15 87 -11 65 -29 119 -47
141 -8 8 -14 19 -14 23 0 5 -14 25 -30 46 -17 21 -30 40 -30 43 0 3 -20 35
-45 71 -25 37 -45 72 -45 79 0 6 -7 21 -15 31 -8 11 -15 29 -15 40 0 12 -7 50
-15 86 -8 36 -17 78 -20 93 -3 16 -17 40 -30 53 -21 21 -24 31 -19 65 8 47 27
55 109 45 37 -4 56 -2 63 7 7 8 15 110 20 258 l8 244 33 70 c18 39 39 85 47
104 19 43 44 207 44 291 0 36 6 128 14 205 23 218 38 389 46 520 11 164 28
323 46 427 l14 87 -41 82 c-40 78 -41 84 -29 118 7 20 18 43 25 51 7 8 17 32
20 53 6 30 3 45 -12 65 -52 72 -51 94 6 173 15 20 33 55 40 77 13 37 12 46 -9
97 -16 38 -24 82 -26 133 -2 69 0 81 24 117 15 22 31 47 37 57 5 9 41 67 80
130 l69 113 8 305 c4 168 11 355 17 415 25 287 32 357 41 450 5 55 14 267 20
470 11 407 24 620 45 737 11 57 12 91 4 135 -5 32 -13 74 -16 93 -6 35 -67
227 -82 258 -5 10 -17 33 -27 52 -17 32 -19 59 -19 307 l-1 272 -23 20 c-13
12 -27 21 -30 21 -14 0 -71 60 -71 74 0 8 20 37 44 65 23 28 51 67 62 86 16
31 17 36 3 47 -8 7 -28 30 -43 52 -34 45 -37 108 -12 215 8 36 22 104 31 151
27 140 59 283 81 358 2 7 8 10 14 7 6 -4 10 -119 10 -316 0 -303 1 -310 22
-339 12 -17 39 -42 60 -56 36 -25 49 -56 29 -68 -5 -3 -32 -44 -60 -91 -64
-107 -65 -128 -8 -214 61 -95 71 -128 51 -177 -25 -60 -6 -188 42 -287 8 -16
14 -38 14 -50 1 -12 7 -33 15 -47 8 -14 14 -36 15 -49 0 -13 19 -58 42 -100
l43 -76 -3 -122 -2 -123 31 -13 32 -13 -2 -213 c-1 -117 -5 -220 -8 -229 -4
-10 -21 -37 -38 -62 -41 -57 -47 -84 -50 -239 -4 -143 -18 -276 -37 -339 -15
-51 -4 -75 36 -80 38 -5 83 32 96 76 5 20 10 67 10 103 0 51 5 72 19 90 24 29
29 25 47 -42 27 -104 14 -174 -44 -226 -19 -18 -43 -33 -53 -33 -10 0 -24 -7
-33 -15 -8 -8 -28 -15 -45 -15 -37 0 -48 -15 -21 -30 21 -11 21 -12 -5 -36
-30 -28 -30 -58 2 -62 12 -2 27 -10 34 -18 10 -12 8 -18 -9 -35 -26 -23 -28
-42 -7 -59 12 -10 26 -6 74 19 60 31 108 50 192 77 26 8 52 20 58 28 11 14 42
89 60 146 5 14 25 61 45 104 l38 80 -12 85 c-6 47 -16 116 -21 153 -13 97 -12
251 3 266 7 7 24 12 38 12 33 0 47 27 60 113 14 96 30 176 50 247 16 59 16 67
2 83 -8 9 -29 21 -46 25 -28 8 -31 12 -30 48 0 21 6 60 12 87 28 113 35 145
42 192 4 28 12 70 18 95 6 25 18 80 27 123 46 232 60 293 91 403 22 78 18 96
-38 189 -29 47 -59 96 -65 108 -9 15 -11 47 -6 105 l6 83 -42 41 c-30 28 -40
45 -35 57 27 64 27 161 0 231 -8 19 -22 62 -31 95 -10 33 -24 78 -31 100 -33
108 -37 126 -28 134 13 12 101 38 153 45 62 9 104 33 95 54 -9 23 -43 138 -55
187 -5 22 -18 72 -30 110 -11 39 -24 86 -29 105 -5 19 -16 58 -24 85 -8 28
-24 86 -36 130 -26 96 -42 151 -64 225 -10 30 -21 71 -26 90 -5 19 -18 67 -30
105 -12 39 -25 86 -29 105 -4 19 -13 51 -19 70 -6 19 -18 62 -28 95 -9 33 -22
78 -29 100 -7 22 -16 57 -19 77 -7 36 -47 78 -76 78 -7 0 -24 6 -38 13 -40 20
-84 40 -212 92 -63 25 -128 53 -143 61 -16 8 -35 14 -44 14 -8 0 -27 6 -41 13
-36 19 -82 38 -177 77 -44 18 -108 46 -143 61 -34 16 -67 29 -72 29 -15 0
-141 68 -163 88 -10 9 -34 43 -54 76 -40 67 -100 136 -119 136 -13 0 -19 13
-29 73 -5 33 0 47 38 111 42 69 77 172 77 228 0 20 11 34 41 55 35 23 45 38
60 88 25 84 53 250 46 269 -4 9 -18 16 -32 16 -23 0 -25 3 -25 50 0 28 6 63
14 78 8 15 17 63 21 107 10 112 21 158 49 200 22 32 24 44 21 113 -2 55 -1 65
4 35 12 -72 31 -73 34 -2 1 26 -3 44 -11 47 -7 2 -12 13 -12 25 0 26 -50 77
-75 77 -13 0 -15 3 -7 13 8 10 4 20 -19 42 -28 26 -34 27 -61 17 -16 -6 -37
-8 -46 -5 -20 7 -61 53 -62 69 0 18 -53 61 -110 91 -54 27 -60 28 -255 33
-110 3 -206 9 -213 13 -7 5 -14 2 -18 -8z m756 -224 c0 -6 -4 -12 -9 -15 -13
-8 -42 4 -35 15 7 12 44 12 44 0z"/>
</g>
</svg>
